# xmcd CD database file
#
# Track frame offsets:
#	150
#	18338
#	36101
#	57903
#	75820
#	94636
#	113818
#	132837
#	160917
#	182926
#	189479
#	206060
#	227404
#	240150
#
# Disc length: 3477 seconds
#
# Revision: 1
# Processed by: cddbd v1.5.2PL0 Copyright (c) Steve Scherf et al.
# Submitted via: jetAudio 7
#
DISCID=a30d930e
DTITLE=뉴에이지 태교음악 - 낮에 듣는 뉴에이지 태교음악
DYEAR=1900
DGENRE=New Age
TTITLE0=Princess of flowers - Isao Sasaki
TTITLE1=MAY Be - YIRUMA
TTITLE2=The September Song Of A Boy - Yuichi Watanabe
TTITLE3=Cutting The Wind - Masaaki Mori
TTITLE4=Sweet Breeze - Isao Sasaki
TTITLE5=Dream - YIRUMA
TTITLE6=Three Days Memory - Hiroki Ishiguro
TTITLE7=A girl wearing rain boots - Masatsugu Shinozaki
TTITLE8=Islander - Masaaki Mori
TTITLE9=With A Leap Of My Hear - PRAHA
TTITLE10=Last Kiss - Yuichi Watanabe
TTITLE11=Loving You - Isao Sasaki
TTITLE12=As You Wish - YIRUMA
TTITLE13=Night Sky - Seiko Sumi
EXTD=
EXTT0=
EXTT1=
EXTT2=
EXTT3=
EXTT4=
EXTT5=
EXTT6=
EXTT7=
EXTT8=
EXTT9=
EXTT10=
EXTT11=
EXTT12=
EXTT13=
PLAYORDER=
